<svg xmlns="http://www.w3.org/2000/svg"><defs><symbol id="logout"><path d="M2.667 24a2.569 2.569 0 0 1-1.884-.784A2.563 2.563 0 0 1 0 21.333V2.667C0 1.933.261 1.305.784.783A2.563 2.563 0 0 1 2.667 0H12v2.667H2.667v18.666H12V24H2.667Zm14.666-5.333L15.5 16.733l3.4-3.4H8v-2.666h10.9l-3.4-3.4 1.833-1.934L24 12l-6.667 6.667Z"/></symbol><symbol id="add" viewBox="0 0 24 24"><path d="M22.286 13.714h-8.572v8.572a1.714 1.714 0 1 1-3.428 0v-8.572H1.714a1.714 1.714 0 1 1 0-3.428h8.572V1.714a1.714 1.714 0 1 1 3.428 0v8.572h8.572a1.714 1.714 0 1 1 0 3.428Z"/></symbol><symbol id="chevron" viewBox="0 0 24 24"><path d="M.91 2.82 9 12 .91 21.18 3.4 24 14 12 3.4 0 .91 2.82Z"/></symbol><symbol id="smiley" viewBox="0 0 24 24"><path d="M12 0c2.373 0 4.693.696 6.667 2a11.893 11.893 0 0 1 4.42 5.323 11.737 11.737 0 0 1 .682 6.854 11.822 11.822 0 0 1-3.284 6.074 12.044 12.044 0 0 1-6.144 3.247c-2.328.458-4.74.223-6.933-.675a11.97 11.97 0 0 1-5.386-4.37A11.767 11.767 0 0 1 0 11.864a11.807 11.807 0 0 1 3.518-8.385A12.083 12.083 0 0 1 12 0Zm0 21.9c2.008 0 3.971-.588 5.641-1.69a10.064 10.064 0 0 0 3.74-4.506 9.931 9.931 0 0 0 .578-5.8 10.003 10.003 0 0 0-2.78-5.139 10.19 10.19 0 0 0-5.198-2.747 10.263 10.263 0 0 0-5.867.571 10.13 10.13 0 0 0-4.557 3.697 9.957 9.957 0 0 0-1.71 5.577 9.991 9.991 0 0 0 2.977 7.094A10.225 10.225 0 0 0 12 21.901Zm5.538-12.318c0-.271-.08-.536-.233-.76a1.381 1.381 0 0 0-.621-.505 1.4 1.4 0 0 0-1.51.297 1.364 1.364 0 0 0-.3 1.491c.105.25.283.464.51.615a1.396 1.396 0 0 0 1.749-.17 1.36 1.36 0 0 0 .405-.968Zm-11.076 0c0 .27.08.535.233.76.152.225.368.4.621.504a1.4 1.4 0 0 0 1.51-.296 1.364 1.364 0 0 0 .3-1.492 1.372 1.372 0 0 0-.51-.615 1.396 1.396 0 0 0-1.749.17 1.36 1.36 0 0 0-.405.969Zm.123 5.475C7.772 17.086 9.747 18.25 12 18.25c2.254 0 4.227-1.164 5.414-3.194a.906.906 0 0 0-.317-1.28.93.93 0 0 0-1.28.367c-.862 1.473-2.217 2.282-3.817 2.282s-2.955-.81-3.816-2.282a.933.933 0 0 0-1.261-.334.904.904 0 0 0-.338 1.247Z"/></symbol><symbol id="at" viewBox="0 0 24 24"><path d="M12 14.829c.81 0 1.5-.297 2.11-.88.59-.603.89-1.285.89-2.086 0-.8-.3-1.483-.89-2.086-.61-.583-1.3-.88-2.11-.88-.81 0-1.5.297-2.11.88-.59.603-.89 1.285-.89 2.086 0 .8.3 1.483.89 2.086.61.583 1.3.88 2.11.88Zm0-12.852c2.75 0 5.1.989 7.05 2.916C21 6.821 22 9.144 22 11.863v1.433a3.57 3.57 0 0 1-1 2.521c-.7.663-1.5.989-2.5.989-1.2 0-2.19-.495-2.94-1.483-1 .988-2.18 1.483-3.56 1.483-1.37 0-2.55-.495-3.54-1.444-.96-.978-1.46-2.135-1.46-3.5 0-1.353.5-2.52 1.46-3.499.99-.949 2.17-1.443 3.54-1.443 1.38 0 2.55.494 3.54 1.443.96.979 1.46 2.146 1.46 3.5v1.433c0 .406.16.762.46 1.068.3.306.65.465 1.04.465.42 0 .77-.159 1.07-.465.3-.306.43-.662.43-1.068v-1.433c0-2.165-.77-4.024-2.35-5.586-1.58-1.562-3.46-2.323-5.65-2.323-2.19 0-4.07.761-5.65 2.323C4.77 7.84 4 9.697 4 11.863c0 2.165.77 4.023 2.35 5.585 1.58 1.562 3.46 2.323 5.65 2.323h5v1.978h-5c-2.75 0-5.1-.989-7.05-2.917C3 16.905 2 14.582 2 11.862c0-2.718 1-5.04 2.95-6.969C6.9 2.966 9.25 1.977 12 1.977Z"/></symbol><symbol id="send" viewBox="0 0 24 24"><path d="M23.457 11.107 1.483.106a.998.998 0 0 0-1.079.12 1 1 0 0 0-.33 1l2.647 9.771h11.297v2H2.72L.035 22.74A1.002 1.002 0 0 0 1.033 24c.157 0 .31-.038.45-.11l21.974-11.001a.999.999 0 0 0 0-1.78Z"/></symbol><symbol id="bold" viewBox="0 0 24 24"><path d="M2 0h9a7.002 7.002 0 0 1 5.704 11.06A6.998 6.998 0 0 1 13 24H2a2 2 0 0 1-2-2V2a2 2 0 0 1 2-2Zm2 14v6h9a3 3 0 0 0 0-6H4Zm7-4a3 3 0 0 0 0-6H4v6h7Z"/></symbol><symbol id="italic" viewBox="0 0 24 24"><path d="M12 24H0v-3h4.39L7.566 3H3V0h12v3h-4.39L7.436 21H12v3Z"/></symbol><symbol id="strikethrough" viewBox="0 0 24 24"><path d="M1 13h24m-5.143-9.427c-.389-.754-1.28-1.42-2.526-1.887-1.246-.468-2.774-.709-4.331-.684h-1.714a6 6 0 0 0-4.243 10.24A6 6 0 0 0 11.286 13h3.428a6 6 0 0 1 4.243 10.241 6 6 0 0 1-4.243 1.757h-2.571c-1.557.025-3.085-.216-4.331-.684-1.247-.467-2.138-1.133-2.526-1.887" stroke-width="3" stroke-linecap="round" stroke-linejoin="round"/></symbol><symbol id="attach" viewBox="0 0 24 24"><path d="M2.28 6A3.723 3.723 0 0 1 6 2.28h4.8V0H6C2.688 0 0 2.688 0 6s2.688 6 6 6h4.8V9.72H6A3.723 3.723 0 0 1 2.28 6ZM7.2 7.2h9.6V4.8H7.2v2.4ZM18 0h-4.8v2.28H18A3.723 3.723 0 0 1 21.72 6 3.723 3.723 0 0 1 18 9.72h-4.8V12H18c3.312 0 6-2.688 6-6s-2.688-6-6-6Z"/></symbol><symbol id="numbered-list" viewBox="0 0 24 24"><path fill-rule="evenodd" clip-rule="evenodd" d="M0 0h3.2v7.158H1.6V1.789H0V0Zm2.62 16.12H0v-1.79h2.62c.467 0 .923.167 1.302.476.378.309.658.744.801 1.243.143.498.14 1.035-.006 1.532-.148.497-.432.929-.813 1.233l-1.088.87H4.8v1.79H0v-1.74l2.974-2.376a.683.683 0 0 0 .226-.341.76.76 0 0 0 .002-.424.686.686 0 0 0-.222-.344.569.569 0 0 0-.36-.131v.002ZM7.6 1.79a1.14 1.14 0 0 0-.849.393 1.427 1.427 0 0 0-.351.949c0 .356.126.697.351.949.226.251.53.393.849.393h15.2c.318 0 .623-.142.848-.393.226-.252.352-.593.352-.95 0-.355-.126-.697-.352-.948a1.14 1.14 0 0 0-.848-.394H7.6Zm0 7.605a1.14 1.14 0 0 0-.849.393 1.427 1.427 0 0 0-.351.949c0 .356.126.697.351.949.226.252.53.393.849.393h15.2c.318 0 .623-.142.848-.393.226-.252.352-.593.352-.95 0-.355-.126-.697-.352-.948a1.14 1.14 0 0 0-.848-.393H7.6Zm-1.2 8.947c0-.356.126-.697.351-.949A1.14 1.14 0 0 1 7.6 17h15.2c.318 0 .623.141.848.393.226.252.352.593.352.95 0 .355-.126.696-.352.948a1.14 1.14 0 0 1-.848.393H7.6a1.14 1.14 0 0 1-.849-.393 1.427 1.427 0 0 1-.351-.949Z" /></symbol><symbol id="bulleted-list" viewBox="0 0 24 24"><path d="M23.765 20.406H6.588a.237.237 0 0 1-.235-.238v-1.665c0-.13.106-.237.235-.237h17.177c.13 0 .235.107.235.237v1.665c0 .13-.106.238-.235.238Zm0-8.441H6.588a.237.237 0 0 1-.235-.238v-1.665c0-.13.106-.237.235-.237h17.177c.13 0 .235.107.235.238v1.664c0 .13-.106.238-.235.238Zm0-8.441H6.588a.237.237 0 0 1-.235-.238V1.622c0-.131.106-.238.235-.238h17.177c.13 0 .235.107.235.238v1.664c0 .13-.106.238-.235.238ZM0 19.336a1.68 1.68 0 0 1 .482-1.177 1.645 1.645 0 0 1 1.165-.488 1.633 1.633 0 0 1 1.165.488 1.666 1.666 0 0 1 .482 1.177 1.68 1.68 0 0 1-.482 1.177A1.645 1.645 0 0 1 1.647 21a1.633 1.633 0 0 1-1.165-.488A1.665 1.665 0 0 1 0 19.337Zm0-8.441a1.68 1.68 0 0 1 .482-1.177 1.646 1.646 0 0 1 1.165-.488 1.632 1.632 0 0 1 1.165.488 1.666 1.666 0 0 1 .482 1.177 1.68 1.68 0 0 1-.482 1.177 1.645 1.645 0 0 1-1.165.487 1.631 1.631 0 0 1-1.165-.487A1.665 1.665 0 0 1 0 10.895Zm0-8.441a1.68 1.68 0 0 1 .482-1.177A1.646 1.646 0 0 1 1.647.789a1.632 1.632 0 0 1 1.165.488 1.666 1.666 0 0 1 .482 1.177 1.68 1.68 0 0 1-.482 1.177 1.646 1.646 0 0 1-1.165.487 1.632 1.632 0 0 1-1.165-.487A1.666 1.666 0 0 1 0 2.454Z"/></symbol><symbol id="blockquote" viewBox="0 0 24 24"><path d="M5 13.667h20M25 19H5M17 8.333h8M25 3h-8M9 5.667h1.333A1.334 1.334 0 1 1 9 7V3.667A2.667 2.667 0 0 1 11.667 1M1 5.667h1.333A1.333 1.333 0 1 1 1 7V3.667A2.667 2.667 0 0 1 3.667 1" stroke-width="2" stroke-linecap="round" stroke-linejoin="round"/></symbol><symbol id="code-snippet" viewBox="0 0 24 24"><path d="M6.55 6.796 2.975 9.818 6.55 12.84a1.175 1.175 0 0 1 .42.8 1.194 1.194 0 0 1-.264.866 1.164 1.164 0 0 1-.792.42 1.144 1.144 0 0 1-.85-.275L.417 10.723A1.175 1.175 0 0 1 0 9.819a1.192 1.192 0 0 1 .418-.905l4.645-3.927a1.15 1.15 0 0 1 1.629.157 1.19 1.19 0 0 1-.142 1.653Zm17.032 2.117-4.645-3.927a1.157 1.157 0 0 0-.851-.275 1.148 1.148 0 0 0-.792.42 1.182 1.182 0 0 0-.264.866 1.19 1.19 0 0 0 .42.8l3.575 3.021-3.575 3.022a1.175 1.175 0 0 0-.42.8 1.194 1.194 0 0 0 .264.866 1.163 1.163 0 0 0 .792.42 1.144 1.144 0 0 0 .85-.275l4.646-3.928A1.175 1.175 0 0 0 24 9.819a1.192 1.192 0 0 0-.418-.905ZM15.494.071a1.146 1.146 0 0 0-1.254.312 1.182 1.182 0 0 0-.235.393l-6.193 17.28c-.105.293-.091.617.04.9a1.168 1.168 0 0 0 1.051.68c.239 0 .471-.074.667-.213.195-.138.343-.335.425-.562l6.193-17.28a1.195 1.195 0 0 0-.307-1.272 1.16 1.16 0 0 0-.387-.238Z" /></symbol><symbol id="code-block" viewBox="0 0 24 24"><path d="m4.293 9.708-4-4a1 1 0 0 1 0-1.415l4-4a1 1 0 1 1 1.415 1.415L2.414 5l3.294 3.293a1 1 0 0 1-1.415 1.415Zm5 0a1 1 0 0 0 1.415 0l4-4a1 1 0 0 0 0-1.415l-4-4a1 1 0 1 0-1.415 1.415L12.587 5 9.293 8.293a1 1 0 0 0 0 1.415ZM22 2h-3a1 1 0 1 0 0 2h3V22H4v-8a1 1 0 0 0-2 0v8a2 2 0 0 0 2 2h18a2 2 0 0 0 2-2V4a2 2 0 0 0-2-2Z" /></symbol><symbol id="group-chat" viewBox="0 0 24 24"><path d="M7.412 11.155c-1.35.041-2.454.573-3.312 1.594H2.425c-.683 0-1.258-.169-1.725-.505-.467-.336-.7-.828-.7-1.475 0-2.93.517-4.395 1.55-4.395.05 0 .231.087.544.262.312.174.719.35 1.219.529.5.178.995.267 1.487.267a5.04 5.04 0 0 0 1.663-.286 5.466 5.466 0 0 0 .95 4.009Zm13.388 7.93c0 .996-.304 1.783-.913 2.36-.608.576-1.416.865-2.425.865H6.537c-1.008 0-1.816-.289-2.425-.865-.608-.577-.912-1.364-.912-2.36 0-.44.015-.869.044-1.288.029-.42.087-.872.175-1.357.087-.486.198-.936.331-1.351.133-.415.313-.82.537-1.214.226-.394.484-.73.776-1.008.291-.278.647-.5 1.068-.666.421-.166.886-.25 1.394-.25.083 0 .262.09.537.268.276.179.58.378.913.598.333.22.78.42 1.338.598s1.12.267 1.687.267 1.13-.089 1.688-.268c.558-.178 1.004-.377 1.337-.597.333-.22.637-.42.912-.598s.455-.267.538-.267c.508 0 .973.083 1.394.249.42.166.777.388 1.069.666.291.278.55.614.774 1.008.226.394.405.799.538 1.214.133.415.244.865.331 1.35.088.486.146.939.175 1.358.03.419.044.848.044 1.288ZM8 3.187c0 .88-.313 1.631-.938 2.254a3.09 3.09 0 0 1-2.262.933 3.09 3.09 0 0 1-2.262-.933A3.064 3.064 0 0 1 1.6 3.187c0-.88.313-1.63.938-2.253A3.09 3.09 0 0 1 4.8 0a3.09 3.09 0 0 1 2.263.934C7.688 1.556 8 2.307 8 3.187Zm8.8 4.78c0 1.32-.469 2.447-1.406 3.38-.938.935-2.069 1.402-3.394 1.402-1.325 0-2.456-.467-3.394-1.401-.937-.934-1.406-2.06-1.406-3.38 0-1.32.469-2.447 1.406-3.38.938-.934 2.069-1.4 3.394-1.4 1.325 0 2.456.466 3.394 1.4.937.933 1.406 2.06 1.406 3.38ZM24 10.77c0 .647-.233 1.14-.7 1.475-.467.336-1.042.505-1.725.505H19.9c-.858-1.021-1.962-1.553-3.313-1.594a5.466 5.466 0 0 0 .95-4.009 5.04 5.04 0 0 0 1.663.286c.492 0 .988-.089 1.488-.267.5-.179.906-.355 1.218-.53.313-.174.494-.26.544-.26 1.033 0 1.55 1.464 1.55 4.394Zm-1.6-7.582c0 .88-.313 1.631-.938 2.254a3.09 3.09 0 0 1-2.262.933 3.09 3.09 0 0 1-2.262-.933A3.064 3.064 0 0 1 16 3.187c0-.88.313-1.63.938-2.253A3.09 3.09 0 0 1 19.2 0a3.09 3.09 0 0 1 2.262.934c.625.622.938 1.373.938 2.253Z"/></symbol><symbol id="download" viewBox="0 0 24 24"><path d="M14 6h-4V0H4v6H0l7 7 7-7ZM0 15v2h14v-2H0Z"/></symbol></defs></svg>